# xmcd
#
# Track frame offsets: 
#        150
#        19042
#        36277
#        50277
#        61370
#        76252
#        92220
#        107182
#        123865
#        136865
#        152845
#
# Disc length: 2218 seconds
#
# Revision: 0
# Processed by: cddbd v1.5.2PL0 Copyright (c) Steve Scherf et al.
# Submitted via: ExactAudioCopy v0.95b4
#
DISCID=8708a80b
DTITLE=Banda Unidos do Forro - Vol II
DYEAR=1900
DGENRE=Forro
TTITLE0=It's a Heartache
TTITLE1=Faça Alguma Coisa
TTITLE2=Severina Cooper (It's Not)
TTITLE3=Errei
TTITLE4=Meu Pecado
TTITLE5=Perquito da Vizinha
TTITLE6=Chamegação
TTITLE7=Vaqueiro Apaixonado
TTITLE8=Cadê Você
TTITLE9=Será castigo
TTITLE10=Tire o Carro da Garagem (Aí é Ruim)
EXTD=
EXTT0=
EXTT1=
EXTT2=
EXTT3=
EXTT4=
EXTT5=
EXTT6=
EXTT7=
EXTT8=
EXTT9=
EXTT10=
PLAYORDER=
